<svg width="500" height="331" viewBox="0 0 500 331" fill="none" xmlns="http://www.w3.org/2000/svg">
<path d="M500 0C500 0 371.64 56.79 336.25 69.25L276.34 88.25L382.48 148.68C382.48 148.68 438.78 135.13 500 118.65V0Z" fill="#7164E6"/>
<path style="mix-blend-mode:soft-light" d="M500 0C500 0 371.64 56.79 336.25 69.25L276.34 88.25L382.48 148.68C382.48 148.68 438.78 135.13 500 118.65V0Z" fill="url(#paint0_linear_36_26)"/>
<path d="M93.1402 269.26C93.1402 269.26 91.6302 273.81 90.7102 279.27C89.8102 284.63 94.7902 289.56 100.63 288.61C106.47 287.66 111.11 282.22 112.46 274.54C113.81 266.86 115.12 259.11 115.12 259.11L93.1402 269.27V269.26Z" fill="#7164E6"/>
<path style="mix-blend-mode:soft-light" d="M93.1402 269.26C93.1402 269.26 91.6302 273.81 90.7102 279.27C89.8102 284.63 94.7902 289.56 100.63 288.61C106.47 287.66 111.11 282.22 112.46 274.54C113.81 266.86 115.12 259.11 115.12 259.11L93.1402 269.27V269.26Z" fill="url(#paint1_linear_36_26)"/>
<path d="M0 194.92C0 194.92 131 158.1 251.13 92.95C251.13 92.95 272.62 80.14 279.44 74.43C286.27 68.72 296.65 59.99 304.15 56.13C311.66 52.27 330.32 47.59 335.16 46.34C340 45.08 343.85 46.27 348.79 51.07C353.73 55.87 363.1 58.89 363.1 58.89C363.1 58.89 358.29 60.84 354.2 62.47C351.1 63.71 342.04 67.15 342.04 67.15C342.04 67.15 337.09 68.91 335.65 71.05C334.71 72.45 334.4 74.22 335.47 76.27C335.47 76.27 348.18 77.74 359.62 82.45C371.06 87.16 385.49 90.85 398.16 95.83C410.82 100.81 435.52 112.18 446.49 119.07C457.46 125.96 463.48 129.37 467.02 133.98C470.56 138.59 469.71 150.78 455.9 153.32C455.9 153.32 439 150.39 426.34 145.41C426.34 145.41 428.97 159.4 413.19 165.52C413.19 165.52 409.5 166 403.06 165.31C396.62 164.62 387.76 160.95 381.04 161.26C381.04 161.26 378.8 161.36 376.75 164.32C374.69 167.28 376.01 168.76 373.57 171.64C369.98 175.87 367.3 176.31 364.64 178.91C361.97 181.51 363.77 185.66 354.4 191.07C345.03 196.48 325.5 197.12 311.78 195.81C298.06 194.5 279.85 190.67 273.61 188.14C273.61 188.14 254.1 194.22 193.46 221.63C132.82 249.05 0 330.31 0 330.31V194.92Z" fill="#CCC7FD"/>
<path style="mix-blend-mode:soft-light" d="M0 194.92C0 194.92 131 158.1 251.13 92.95C251.13 92.95 272.62 80.14 279.44 74.43C286.27 68.72 296.65 59.99 304.15 56.13C311.66 52.27 330.32 47.59 335.16 46.34C340 45.08 343.85 46.27 348.79 51.07C353.73 55.87 363.1 58.89 363.1 58.89C363.1 58.89 358.29 60.84 354.2 62.47C351.1 63.71 342.04 67.15 342.04 67.15C342.04 67.15 337.09 68.91 335.65 71.05C334.71 72.45 334.4 74.22 335.47 76.27C335.47 76.27 348.18 77.74 359.62 82.45C371.06 87.16 385.49 90.85 398.16 95.83C410.82 100.81 435.52 112.18 446.49 119.07C457.46 125.96 463.48 129.37 467.02 133.98C470.56 138.59 469.71 150.78 455.9 153.32C455.9 153.32 439 150.39 426.34 145.41C426.34 145.41 428.97 159.4 413.19 165.52C413.19 165.52 409.5 166 403.06 165.31C396.62 164.62 387.76 160.95 381.04 161.26C381.04 161.26 378.8 161.36 376.75 164.32C374.69 167.28 376.01 168.76 373.57 171.64C369.98 175.87 367.3 176.31 364.64 178.91C361.97 181.51 363.77 185.66 354.4 191.07C345.03 196.48 325.5 197.12 311.78 195.81C298.06 194.5 279.85 190.67 273.61 188.14C273.61 188.14 254.1 194.22 193.46 221.63C132.82 249.05 0 330.31 0 330.31V194.92Z" fill="url(#paint2_linear_36_26)"/>
<path d="M426.35 145.41C426.35 145.41 408.89 138.39 398.11 133.26C398.11 133.26 415.67 144.45 426.5 148.49L426.35 145.42V145.41Z" fill="#7879E8"/>
<path d="M448.83 127C448.83 127 451.21 136.64 441.43 143.01L445.43 142.49C445.43 142.49 452 136.69 448.83 127Z" fill="#7879E8"/>
<path d="M371.33 104.03C371.33 104.03 379.24 104.92 386.71 109.73C386.71 109.73 380.89 102.43 371.33 104.03Z" fill="#7879E8"/>
<path d="M335.5 76.27C335.5 76.27 324.56 74.16 317.12 71.87L334.84 74.07L335.5 76.27Z" fill="#7879E8"/>
<path d="M256.33 89.8C256.33 89.8 212.03 104.48 196.03 106.57C196.03 106.57 190.86 106.24 176.78 108.7C162.71 111.16 156.29 111.87 145.98 115.34C135.67 118.81 133 121.85 113.78 128.54C113.78 128.54 104.64 129.92 102.21 141.56C99.78 153.2 104.19 158.7 97.28 170.99C97.28 170.99 95.98 176.17 106.14 178.47C117.52 181.05 132.41 166.99 131.61 151.38C131.61 151.38 222.71 109.6 256.33 89.8Z" fill="#7164E6"/>
<path style="mix-blend-mode:soft-light" d="M256.33 89.8C256.33 89.8 212.03 104.48 196.03 106.57C196.03 106.57 190.86 106.24 176.78 108.7C162.71 111.16 156.29 111.87 145.98 115.34C135.67 118.81 133 121.85 113.78 128.54C113.78 128.54 104.64 129.92 102.21 141.56C99.78 153.2 104.19 158.7 97.28 170.99C97.28 170.99 95.98 176.17 106.14 178.47C117.52 181.05 132.41 166.99 131.61 151.38C131.61 151.38 222.71 109.6 256.33 89.8Z" fill="url(#paint3_linear_36_26)"/>
<path opacity="0.65" d="M103.83 154.35C103.83 154.35 102.81 162.48 100.88 167.28C100.88 167.28 102.74 169.76 107.53 165.59C112.32 161.42 113.06 154.62 111.22 151.16L103.83 154.36V154.35Z" fill="#CCC7FD"/>
<path d="M131.61 151.38C131.61 151.38 131.92 144.42 131 141.18C131 141.18 133.69 145.9 134.06 150.19L131.61 151.38Z" fill="#3C3C47"/>
<path d="M135.19 149.73C135.19 149.73 140.01 145.08 141.74 140.39C141.74 140.39 141.99 143.76 138.89 148.01L135.18 149.72L135.19 149.73Z" fill="#3C3C47"/>
<path d="M209.52 227.54C209.52 227.54 212.5 234.56 221.59 231.54C230.68 228.53 231.55 221.16 231.55 221.16C231.55 221.16 231.23 188.71 231.19 178.32C231.15 167.93 221.38 168.09 216.78 169.76C212.18 171.43 208.53 175.85 208.54 186.94C208.55 198.03 205.89 207.15 205.89 207.15L209.52 227.54Z" fill="#7164E6"/>
<path style="mix-blend-mode:soft-light" d="M209.52 227.54C209.52 227.54 212.5 234.56 221.59 231.54C230.68 228.53 231.55 221.16 231.55 221.16C231.55 221.16 231.23 188.71 231.19 178.32C231.15 167.93 221.38 168.09 216.78 169.76C212.18 171.43 208.53 175.85 208.54 186.94C208.55 198.03 205.89 207.15 205.89 207.15L209.52 227.54Z" fill="url(#paint4_linear_36_26)"/>
<path opacity="0.65" d="M214.09 177.11C214.09 177.11 222.75 169.93 229.31 177.16C229.31 177.16 230.88 187.85 222.46 189.36C214.04 190.88 214.1 177.11 214.1 177.11H214.09Z" fill="#CCC7FD"/>
<path d="M183.48 234.8C183.48 234.8 187 243.07 197.7 239.52C208.41 235.97 209.44 227.29 209.44 227.29C209.44 227.29 209.06 189.04 209.01 176.8C208.96 164.56 197.44 164.74 192.02 166.72C186.6 168.69 182.29 173.89 182.31 186.96C182.33 200.03 179.19 210.78 179.19 210.78L183.47 234.8H183.48Z" fill="#7164E6"/>
<path style="mix-blend-mode:soft-light" d="M183.48 234.8C183.48 234.8 187 243.07 197.7 239.52C208.41 235.97 209.44 227.29 209.44 227.29C209.44 227.29 209.06 189.04 209.01 176.8C208.96 164.56 197.44 164.74 192.02 166.72C186.6 168.69 182.29 173.89 182.31 186.96C182.33 200.03 179.19 210.78 179.19 210.78L183.47 234.8H183.48Z" fill="url(#paint5_linear_36_26)"/>
<path opacity="0.65" d="M188.86 175.37C188.86 175.37 199.07 166.91 206.8 175.43C206.8 175.43 208.65 188.02 198.72 189.81C188.79 191.6 188.86 175.37 188.86 175.37Z" fill="#CCC7FD"/>
<path d="M166.69 256.51C166.69 256.51 183.49 254.91 184.64 236.86C185.62 221.44 182.94 188.46 182.94 188.46C182.94 188.46 179.39 177.42 169.55 180.4C159.71 183.37 154.1 189.69 153.53 203.7C152.96 217.71 150.04 235.97 151.9 244.55C153.77 253.13 161.09 256.78 166.69 256.52V256.51Z" fill="#7164E6"/>
<path style="mix-blend-mode:soft-light" d="M166.69 256.51C166.69 256.51 183.49 254.91 184.64 236.86C185.62 221.44 182.94 188.46 182.94 188.46C182.94 188.46 179.39 177.42 169.55 180.4C159.71 183.37 154.1 189.69 153.53 203.7C152.96 217.71 150.04 235.97 151.9 244.55C153.77 253.13 161.09 256.78 166.69 256.52V256.51Z" fill="url(#paint6_linear_36_26)"/>
<path opacity="0.65" d="M163.75 188.77C163.75 188.77 172.61 181.93 179.84 187.69C179.84 187.69 182.81 199.77 174.65 203.82C166.5 207.86 161.37 197.49 163.75 188.77Z" fill="#CCC7FD"/>
<g style="mix-blend-mode:multiply" opacity="0.4">
<path d="M500 101.89L456.7 115.14C456.7 115.14 418.49 97.06 393.45 91.39C393.45 91.39 439.45 110.35 461.45 127L500 116.39V101.89Z" fill="#7164E6"/>
</g>
<g style="mix-blend-mode:multiply" opacity="0.4">
<path d="M129.38 138.83C129.38 138.83 128.54 158.31 118.7 166.47C108.87 174.64 98.9502 170.39 98.9502 170.39L97.9502 171.5C97.9502 171.5 100.87 177.31 110.62 177.31C120.37 177.31 129.12 165.14 129.79 156.73C130.46 148.31 129.38 138.84 129.38 138.84V138.83Z" fill="#7164E6"/>
</g>
<g style="mix-blend-mode:multiply" opacity="0.4">
<path d="M184.45 194.56C184.45 194.56 185.78 225.96 185.78 232.3V235.64C185.78 235.64 188.7 240.22 196.11 238.81C203.53 237.39 206.69 231.47 207.86 228.14C207.86 228.14 204.93 233.53 195.84 233.13C190.86 232.91 187.02 231 187.02 231C186.44 184.75 185.2 186.08 185.11 178.18C185.11 178.18 185.69 173.89 187.61 170.47C187.61 170.47 183.78 172.95 183.11 185.37C183.11 185.37 184.17 188.04 184.44 194.55L184.45 194.56Z" fill="#7164E6"/>
</g>
<g style="mix-blend-mode:multiply" opacity="0.4">
<path d="M183.12 240.41C183.12 240.41 179.18 247.39 168.07 247.14C156.96 246.89 152.33 233.02 152.33 233.02C152.33 233.02 150.76 255.31 164.95 255.4C178.89 255.48 183.12 240.42 183.12 240.42V240.41Z" fill="#7164E6"/>
</g>
<g style="mix-blend-mode:multiply" opacity="0.4">
<path d="M209.87 199.89L213.29 225.56C213.29 225.56 221.04 229.81 229.87 221.06C229.87 221.06 230.04 228.31 220.87 230.48C211.7 232.65 210.29 226.31 210.29 226.31L209.87 199.89Z" fill="#7164E6"/>
</g>
<g style="mix-blend-mode:multiply" opacity="0.4">
<path d="M92.4901 276.52L113.39 264.59C113.39 264.59 112.63 271.48 110.91 277.16C109.19 282.85 104.78 287.2 100.18 287.57C100.18 287.57 105.55 284.45 105.79 279.16C106.03 273.87 106.27 271.87 106.27 271.87L91.8501 280.2L92.4901 276.52Z" fill="#7164E6"/>
</g>
<g style="mix-blend-mode:multiply" opacity="0.65">
<path d="M466.29 135C466.29 135 458.37 125.8 449.37 121.55C449.37 121.55 453.7 138.88 442.62 144.55C442.62 144.55 434.2 144.09 425.04 140.86C415.87 137.63 394.37 129.55 394.37 129.55L425.87 143.8C425.87 143.8 445.45 150.88 455.54 151.97C455.54 151.97 462.95 151.06 465.87 145.14C468.79 139.22 466.29 135 466.29 135Z" fill="#CCC7FD"/>
</g>
<g style="mix-blend-mode:multiply" opacity="0.65">
<path d="M425.2 149.22C425.2 149.22 424.24 160.05 412.3 164.3C412.3 164.3 405.7 165.05 398.53 162.88C391.36 160.71 383.95 158.88 379.86 159.96C379.86 159.96 385.53 157.29 396.03 158.63C406.53 159.96 412.36 153.38 413.2 143.88L425.2 149.21V149.22Z" fill="#CCC7FD"/>
</g>
<g style="mix-blend-mode:multiply" opacity="0.65">
<path d="M378.12 160.97C378.12 160.97 376.12 162.39 374.79 166.14C373.46 169.89 373.62 170.97 368.46 174.64C363.29 178.31 363.13 177.39 361.29 181.56C359.46 185.73 353.54 191.9 339.37 194.14C325.2 196.39 305.87 194.14 305.87 194.14C305.87 194.14 333.87 196.22 343.7 189.97C353.53 183.72 353.12 184.05 360.03 175.64C364.78 169.86 368.2 169.22 369.45 165.22C370.7 161.22 378.12 160.97 378.12 160.97Z" fill="#CCC7FD"/>
</g>
<g style="mix-blend-mode:multiply" opacity="0.65">
<path d="M340.62 48.47C340.62 48.47 346.87 57.05 336.7 68.3L360.03 59.13C360.03 59.13 352.7 58.05 350.11 54.46C347.52 50.87 344.36 48.38 340.61 48.46L340.62 48.47Z" fill="#CCC7FD"/>
</g>
<g style="mix-blend-mode:multiply" opacity="0.65">
<path d="M272.79 186.64L274.29 178.06L232.79 193.97V203.06L272.79 186.64Z" fill="#CCC7FD"/>
</g>
<g style="mix-blend-mode:multiply" opacity="0.65">
<path d="M150.48 222.69L2.35986 294.78V326.1L149.76 241.95L150.48 222.69Z" fill="#CCC7FD"/>
</g>
<g style="mix-blend-mode:multiply" opacity="0.65">
<path d="M112.15 179.89C112.15 179.89 131.63 178.22 133.17 151.95L141.19 148.38C141.19 148.38 144.82 182.34 112.15 179.89Z" fill="#CCC7FD"/>
</g>
<defs>
<linearGradient id="paint0_linear_36_26" x1="545.35" y1="207.24" x2="386.35" y2="42.24" gradientUnits="userSpaceOnUse">
<stop/>
<stop offset="1" stop-opacity="0"/>
</linearGradient>
<linearGradient id="paint1_linear_36_26" x1="101.93" y1="265.32" x2="105.27" y2="282.66" gradientUnits="userSpaceOnUse">
<stop/>
<stop offset="1" stop-opacity="0"/>
</linearGradient>
<linearGradient id="paint2_linear_36_26" x1="248.8" y1="331.95" x2="223.8" y2="162.95" gradientUnits="userSpaceOnUse">
<stop/>
<stop offset="1" stop-opacity="0"/>
</linearGradient>
<linearGradient id="paint3_linear_36_26" x1="237.34" y1="185.87" x2="168" y2="123.87" gradientUnits="userSpaceOnUse">
<stop/>
<stop offset="1" stop-opacity="0"/>
</linearGradient>
<linearGradient id="paint4_linear_36_26" x1="238.2" y1="240.9" x2="216.87" y2="193.9" gradientUnits="userSpaceOnUse">
<stop/>
<stop offset="1" stop-opacity="0"/>
</linearGradient>
<linearGradient id="paint5_linear_36_26" x1="214.81" y1="257.61" x2="193.14" y2="195.61" gradientUnits="userSpaceOnUse">
<stop/>
<stop offset="1" stop-opacity="0"/>
</linearGradient>
<linearGradient id="paint6_linear_36_26" x1="169.26" y1="283.45" x2="167.59" y2="210.79" gradientUnits="userSpaceOnUse">
<stop/>
<stop offset="1" stop-opacity="0"/>
</linearGradient>
</defs>
</svg>
