<svg width="40" height="40" viewBox="0 0 40 40" fill="none" xmlns="http://www.w3.org/2000/svg">
<circle cx="20" cy="20" r="20" fill="#EB3577"/>
<rect width="26" height="26" transform="translate(7 7)" fill="#EB3577"/>
<path d="M25.4165 9.16667H14.5832C11.5916 9.16667 9.1665 11.5918 9.1665 14.5833V25.4167C9.1665 28.4082 11.5916 30.8333 14.5832 30.8333H25.4165C28.408 30.8333 30.8332 28.4082 30.8332 25.4167V14.5833C30.8332 11.5918 28.408 9.16667 25.4165 9.16667Z" stroke="#FCFCFD" stroke-width="2" stroke-linecap="round" stroke-linejoin="round"/>
<path d="M24.3332 19.3175C24.4669 20.2191 24.3129 21.1399 23.8931 21.9489C23.4733 22.758 22.8091 23.414 21.9949 23.8238C21.1808 24.2336 20.2582 24.3762 19.3583 24.2314C18.4584 24.0866 17.6271 23.6618 16.9826 23.0173C16.3381 22.3728 15.9132 21.5415 15.7684 20.6416C15.6236 19.7417 15.7662 18.8191 16.176 18.0049C16.5858 17.1908 17.2419 16.5266 18.0509 16.1068C18.8599 15.687 19.7807 15.533 20.6823 15.6667C21.602 15.803 22.4534 16.2316 23.1108 16.889C23.7683 17.5464 24.1968 18.3978 24.3332 19.3175Z" stroke="#FCFCFD" stroke-width="2" stroke-linecap="round" stroke-linejoin="round"/>
<path d="M25.9585 14.0417H25.9697" stroke="#FCFCFD" stroke-width="2" stroke-linecap="round" stroke-linejoin="round"/>
</svg>
